<?xml version="1.0" standalone="no"?>
<!DOCTYPE svg PUBLIC "-//W3C//DTD SVG 20010904//EN"
 "http://www.w3.org/TR/2001/REC-SVG-20010904/DTD/svg10.dtd">
<svg version="1.0" xmlns="http://www.w3.org/2000/svg"
 width="313.000000pt" height="75.000000pt" viewBox="0 0 313.000000 75.000000"
 preserveAspectRatio="xMidYMid meet">

<g transform="translate(0.000000,75.000000) scale(0.100000,-0.100000)"
fill="#000000" stroke="none">
<path d="M80 440 l0 -230 1405 0 1405 0 0 230 0 230 -1405 0 -1405 0 0 -230z
m2785 0 l0 -205 -1382 -3 -1383 -2 0 203 c0 112 3 207 7 210 3 4 626 6 1382 5
l1376 -3 0 -205z"/>
<path d="M120 440 l0 -190 1365 0 1365 0 0 190 0 190 -1365 0 -1365 0 0 -190z
m269 121 c36 -19 61 -71 61 -124 0 -40 -5 -53 -34 -85 l-34 -37 -99 -3 c-73
-2 -94 0 -80 8 15 9 17 27 17 125 0 96 -3 115 -15 115 -8 0 -15 5 -15 11 0 15
167 6 199 -10z m961 10 c0 -5 -5 -11 -11 -13 -8 -3 -3 -30 16 -87 15 -45 31
-79 35 -74 4 4 14 30 23 56 17 52 10 93 -18 103 -31 12 -13 24 35 24 46 0 67
-13 38 -23 -10 -3 -5 -27 16 -93 l29 -89 30 90 c20 61 26 90 19 93 -25 8 -10
22 23 22 38 0 43 -6 21 -24 -8 -6 -33 -65 -55 -130 -23 -66 -44 -122 -46 -124
-5 -5 -8 2 -40 96 -11 28 -22 52 -26 52 -4 0 -17 -30 -29 -67 -13 -38 -26 -72
-30 -76 -4 -5 -26 46 -50 113 -24 67 -49 128 -57 135 -21 21 -16 25 32 25 25
0 45 -4 45 -9z m-506 -51 c19 -7 26 -6 27 3 1 6 5 -6 10 -27 11 -47 4 -59 -12
-22 -22 47 -96 48 -117 1 -21 -45 -15 -103 13 -130 30 -31 63 -32 101 -3 l29
21 -27 -29 c-22 -22 -37 -29 -69 -29 -104 0 -138 149 -47 205 37 22 55 24 92
10z m251 -21 c31 -28 35 -37 35 -80 0 -40 -5 -55 -29 -81 -24 -27 -36 -33 -70
-33 -108 0 -146 150 -53 208 41 25 77 21 117 -14z m1313 17 c44 -23 66 -77 51
-128 -23 -85 -115 -112 -170 -50 -23 26 -29 41 -29 80 0 40 5 53 28 74 43 41
75 47 120 24z m-1759 -23 c0 -27 -1 -27 -9 -5 -8 18 -17 22 -50 22 l-40 0 0
-40 c0 -39 1 -40 34 -40 24 0 36 5 39 18 3 9 5 -3 5 -28 0 -25 -2 -37 -5 -27
-3 12 -15 17 -39 17 -35 0 -35 0 -32 -42 l3 -43 39 1 c25 1 44 8 53 20 16 23
23 16 12 -13 -8 -21 -15 -23 -89 -23 -70 0 -79 2 -67 14 18 18 14 176 -5 188
-7 4 24 8 70 8 l82 0 -1 -27z m1079 20 c-16 -4 -18 -17 -18 -98 0 -81 2 -94
18 -98 9 -3 -5 -5 -33 -5 -27 0 -44 2 -37 5 8 3 12 33 12 98 0 65 -4 95 -12
98 -7 3 10 5 37 5 28 0 42 -2 33 -5z m150 -69 l62 -76 0 70 c0 59 -3 71 -17
75 -10 3 0 5 22 5 22 0 34 -2 28 -5 -9 -3 -13 -34 -13 -104 0 -54 -4 -99 -8
-99 -5 0 -38 36 -73 80 l-64 80 -3 -68 c-2 -54 0 -69 14 -79 16 -11 13 -13
-22 -12 -21 0 -33 3 -26 6 8 3 12 32 12 93 0 74 -3 91 -17 99 -15 9 -13 10 13
11 26 0 39 -11 92 -76z m313 47 c47 -48 36 -137 -22 -167 -33 -17 -175 -20
-146 -3 14 8 17 25 17 94 0 69 -3 86 -17 94 -13 8 2 10 60 11 74 0 80 -2 108
-29z m373 23 c-9 -4 -6 -24 9 -69 12 -36 24 -65 28 -65 3 0 12 20 19 45 11 39
10 48 -4 70 l-16 25 35 0 c24 0 34 -4 29 -11 -7 -12 25 -129 36 -129 11 0 43
117 36 129 -5 7 4 11 26 11 24 0 29 -3 18 -10 -8 -5 -29 -51 -45 -101 -17 -51
-36 -94 -41 -96 -5 -2 -18 22 -29 52 -10 30 -21 55 -25 55 -4 0 -15 -27 -25
-60 -10 -33 -21 -57 -25 -53 -4 4 -22 48 -39 98 -18 49 -37 95 -43 102 -8 10
-2 13 28 12 22 0 34 -3 28 -5z"/>
<path d="M273 553 c-9 -3 -13 -36 -13 -114 l0 -109 44 0 c37 0 48 5 70 31 31
36 36 114 10 154 -21 32 -78 52 -111 38z"/>
<path d="M985 490 c-23 -25 -24 -110 -1 -145 20 -31 58 -33 86 -5 25 25 28
114 4 148 -19 28 -64 29 -89 2z"/>
<path d="M2316 488 c-10 -13 -16 -43 -16 -73 0 -62 20 -95 59 -95 41 0 63 30
64 88 1 64 -22 102 -63 102 -19 0 -34 -8 -44 -22z"/>
<path d="M2077 504 c-4 -4 -7 -45 -7 -90 0 -73 2 -83 20 -89 23 -7 75 18 84
40 12 32 6 93 -11 114 -19 22 -73 38 -86 25z"/>
<path d="M2962 654 c-27 -19 -30 -66 -4 -85 14 -11 15 -11 5 1 -38 42 4 104
53 81 27 -12 33 -57 12 -81 -11 -12 -10 -12 5 -1 35 27 8 101 -38 101 -6 0
-21 -7 -33 -16z"/>
<path d="M2970 608 c0 -24 3 -29 9 -19 8 13 12 13 28 0 16 -13 17 -12 5 3 -9
11 -10 18 -2 23 15 9 2 25 -21 25 -15 0 -19 -7 -19 -32z m35 12 c-3 -5 -10
-10 -16 -10 -5 0 -9 5 -9 10 0 6 7 10 16 10 8 0 12 -4 9 -10z"/>
<path d="M2988 553 c7 -3 16 -2 19 1 4 3 -2 6 -13 5 -11 0 -14 -3 -6 -6z"/>
<path d="M707 153 c-10 -9 -9 -61 1 -67 5 -3 6 9 4 26 -3 19 1 33 9 39 8 5 9
9 3 9 -6 0 -14 -3 -17 -7z"/>
<path d="M780 153 c5 -2 10 -19 10 -36 0 -33 -14 -28 -23 8 -4 19 -5 19 -6 -1
-1 -28 26 -53 35 -31 9 23 1 60 -14 63 -7 1 -8 0 -2 -3z"/>
<path d="M841 125 c0 -37 1 -38 11 -15 l11 25 7 -25 c7 -23 8 -23 9 9 1 25 -3
32 -13 28 -8 -3 -17 -1 -20 6 -2 7 -4 -6 -5 -28z"/>
<path d="M930 149 c11 -8 12 -12 3 -16 -7 -2 -13 -10 -13 -16 0 -6 7 -4 16 5
17 17 12 38 -9 38 -7 0 -6 -4 3 -11z"/>
<path d="M1118 125 c2 -19 5 -35 7 -35 2 0 5 16 7 35 2 21 0 35 -7 35 -7 0 -9
-14 -7 -35z"/>
<path d="M1331 144 c0 -11 3 -14 6 -6 3 7 2 16 -1 19 -3 4 -6 -2 -5 -13z"/>
<path d="M1449 138 c0 -22 -1 -22 -9 -3 -6 14 -9 16 -9 4 -1 -8 6 -24 14 -35
13 -18 14 -17 15 19 0 39 -10 53 -11 15z"/>
<path d="M1501 118 l2 -43 7 40 c6 39 6 39 12 10 l5 -30 -1 29 c-1 16 -7 31
-13 34 -9 2 -13 -9 -12 -40z"/>
<path d="M1577 153 c-10 -10 -8 -61 2 -68 5 -3 13 0 17 6 4 8 3 9 -4 5 -8 -5
-12 3 -12 23 0 16 6 32 13 34 6 3 7 6 1 6 -6 1 -14 -2 -17 -6z"/>
<path d="M1860 153 c5 -2 10 -19 10 -36 0 -33 -14 -28 -23 8 -4 19 -5 19 -6
-1 -1 -28 26 -53 35 -31 9 23 1 60 -14 63 -7 1 -8 0 -2 -3z"/>
<path d="M1920 120 c0 -22 3 -40 8 -40 4 0 6 18 4 40 -2 22 -6 40 -8 40 -2 0
-4 -18 -4 -40z"/>
<path d="M1984 125 c1 -46 21 -55 22 -10 l1 30 -5 -30 c-6 -29 -6 -29 -13 10
l-7 40 2 -40z"/>
<path d="M2058 125 c2 -19 5 -35 7 -35 2 0 5 16 7 35 2 21 0 35 -7 35 -7 0 -9
-14 -7 -35z"/>
<path d="M2167 153 c-10 -9 -9 -61 1 -67 5 -3 6 9 4 26 -3 19 1 33 9 39 8 5 9
9 3 9 -6 0 -14 -3 -17 -7z"/>
<path d="M2259 138 c0 -22 -1 -22 -9 -3 -6 13 -9 15 -9 5 0 -8 6 -24 14 -34
14 -19 15 -18 15 17 0 39 -10 52 -11 15z"/>
<path d="M1281 140 c0 -8 4 -24 9 -35 5 -13 9 -14 9 -5 0 8 -4 24 -9 35 -5 13
-9 14 -9 5z"/>
<path d="M1301 140 c0 -8 6 -24 14 -34 11 -15 15 -16 15 -5 0 8 -7 24 -15 35
-11 14 -14 15 -14 4z"/>
<path d="M1641 140 c0 -8 4 -24 9 -35 l9 -20 1 20 c1 20 1 20 15 1 11 -14 15
-16 15 -5 0 8 -7 23 -15 33 -15 20 -15 20 -16 0 0 -18 -1 -18 -9 1 -5 13 -9
14 -9 5z"/>
<path d="M2112 120 c0 -19 2 -27 5 -17 2 9 2 25 0 35 -3 9 -5 1 -5 -18z"/>
<path d="M1601 124 c0 -11 3 -14 6 -6 3 7 2 16 -1 19 -3 4 -6 -2 -5 -13z"/>
<path d="M2192 120 c0 -14 2 -19 5 -12 2 6 2 18 0 25 -3 6 -5 1 -5 -13z"/>
<path d="M1793 108 c1 -15 6 -23 11 -18 4 4 4 16 -2 26 -9 16 -10 14 -9 -8z"/>
<path d="M1050 90 c0 -5 5 -10 11 -10 5 0 7 5 4 10 -3 6 -8 10 -11 10 -2 0 -4
-4 -4 -10z"/>
</g>
</svg>
